<svg width="145" height="121" viewBox="0 0 145 121" fill="none" xmlns="http://www.w3.org/2000/svg">
<mask id="path-1-outside-1_183_130" maskUnits="userSpaceOnUse" x="2" y="4" width="89" height="89" fill="black">
<rect fill="white" x="2" y="4" width="89" height="89"/>
<path d="M27.008 29.048L28.864 29.368V91H4.096V6.52H37.568L65.152 67.96L63.296 68.344V6.52H88.064V91H54.4L27.008 29.048Z"/>
</mask>
<path d="M27.008 29.048L28.864 29.368V91H4.096V6.52H37.568L65.152 67.96L63.296 68.344V6.52H88.064V91H54.4L27.008 29.048Z" fill="white"/>
<path d="M27.008 29.048L27.3478 27.0771L23.6694 26.4429L25.1788 29.8568L27.008 29.048ZM28.864 29.368H30.864V27.6833L29.2038 27.3971L28.864 29.368ZM28.864 91V93H30.864V91H28.864ZM4.096 91H2.096V93H4.096V91ZM4.096 6.52V4.52H2.096V6.52H4.096ZM37.568 6.52L39.3926 5.70085L38.8624 4.52H37.568V6.52ZM65.152 67.96L65.5572 69.9185L67.997 69.4137L66.9766 67.1409L65.152 67.96ZM63.296 68.344H61.296V70.8002L63.7012 70.3025L63.296 68.344ZM63.296 6.52V4.52H61.296V6.52H63.296ZM88.064 6.52H90.064V4.52H88.064V6.52ZM88.064 91V93H90.064V91H88.064ZM54.4 91L52.5708 91.8088L53.0975 93H54.4V91ZM27.008 29.048L26.6682 31.0189L28.5242 31.3389L28.864 29.368L29.2038 27.3971L27.3478 27.0771L27.008 29.048ZM28.864 29.368H26.864V91H28.864H30.864V29.368H28.864ZM28.864 91V89H4.096V91V93H28.864V91ZM4.096 91H6.096V6.52H4.096H2.096V91H4.096ZM4.096 6.52V8.52H37.568V6.52V4.52H4.096V6.52ZM37.568 6.52L35.7434 7.33914L63.3274 68.7791L65.152 67.96L66.9766 67.1409L39.3926 5.70085L37.568 6.52ZM65.152 67.96L64.7468 66.0015L62.8908 66.3855L63.296 68.344L63.7012 70.3025L65.5572 69.9185L65.152 67.96ZM63.296 68.344H65.296V6.52H63.296H61.296V68.344H63.296ZM63.296 6.52V8.52H88.064V6.52V4.52H63.296V6.52ZM88.064 6.52H86.064V91H88.064H90.064V6.52H88.064ZM88.064 91V89H54.4V91V93H88.064V91ZM54.4 91L56.2292 90.1912L28.8372 28.2392L27.008 29.048L25.1788 29.8568L52.5708 91.8088L54.4 91Z" fill="white" mask="url(#path-1-outside-1_183_130)"/>
<path d="M67.716 5.54H97.584C106.798 5.54 114.461 7.39583 120.575 11.1075C126.732 14.7755 131.36 19.8627 134.461 26.369C137.561 32.8753 139.111 40.3205 139.111 48.7045C139.111 57.1322 137.561 64.5992 134.461 71.1055C131.36 77.6118 126.732 82.7208 120.575 86.4325C114.461 90.1442 106.798 92 97.584 92H67.716V5.54ZM93.0645 27.8755V69.6645H95.2915C98.9158 69.6645 101.973 68.7475 104.462 66.9135C106.951 65.0795 108.85 62.5905 110.16 59.4465C111.47 56.2588 112.125 52.7218 112.125 48.8355C112.125 44.9055 111.47 41.3685 110.16 38.2245C108.894 35.0368 106.994 32.526 104.462 30.692C101.973 28.8143 98.9158 27.8755 95.2915 27.8755H93.0645Z" fill="white"/>
<path d="M67.716 5.53999V4.53999H66.716V5.53999H67.716ZM120.575 11.1075L120.056 11.9623L120.063 11.9666L120.575 11.1075ZM134.461 26.369L135.363 25.9388V25.9388L134.461 26.369ZM134.461 71.1055L135.363 71.5357V71.5357L134.461 71.1055ZM120.575 86.4325L120.058 85.5761L120.056 85.5777L120.575 86.4325ZM67.716 92H66.716V93H67.716V92ZM93.0645 27.8755V26.8755H92.0645V27.8755H93.0645ZM93.0645 69.6645H92.0645V70.6645H93.0645V69.6645ZM104.462 66.9135L103.868 66.1084V66.1084L104.462 66.9135ZM110.16 59.4465L111.083 59.8311L111.085 59.8266L110.16 59.4465ZM110.16 38.2245L109.231 38.5937L109.234 38.6014L109.237 38.6091L110.16 38.2245ZM104.462 30.692L103.859 31.4903L103.867 31.4962L103.875 31.5019L104.462 30.692ZM67.716 5.53999V6.53999H97.584V5.53999V4.53999H67.716V5.53999ZM97.584 5.53999V6.53999C106.666 6.53999 114.138 8.36932 120.056 11.9623L120.575 11.1075L121.093 10.2527C114.785 6.42234 106.929 4.53999 97.584 4.53999V5.53999ZM120.575 11.1075L120.063 11.9666C126.049 15.5328 130.542 20.4702 133.558 26.7992L134.461 26.369L135.363 25.9388C132.178 19.2551 127.414 14.0182 121.086 10.2484L120.575 11.1075ZM134.461 26.369L133.558 26.7992C136.584 33.1509 138.111 40.4451 138.111 48.7045H139.111H140.111C140.111 40.1959 138.537 32.5998 135.363 25.9388L134.461 26.369ZM139.111 48.7045H138.111C138.111 57.0084 136.584 64.3243 133.558 70.6753L134.461 71.1055L135.363 71.5357C138.538 64.874 140.111 57.2559 140.111 48.7045H139.111ZM134.461 71.1055L133.558 70.6753C130.541 77.0053 126.047 81.9658 120.058 85.5761L120.575 86.4325L121.091 87.2889C127.416 83.4758 132.179 78.2184 135.363 71.5357L134.461 71.1055ZM120.575 86.4325L120.056 85.5777C114.138 89.1707 106.666 91 97.584 91V92V93C106.929 93 114.785 91.1177 121.093 87.2873L120.575 86.4325ZM97.584 92V91H67.716V92V93H97.584V92ZM67.716 92H68.716V5.53999H67.716H66.716V92H67.716ZM93.0645 27.8755H92.0645V69.6645H93.0645H94.0645V27.8755H93.0645ZM93.0645 69.6645V70.6645H95.2915V69.6645V68.6645H93.0645V69.6645ZM95.2915 69.6645V70.6645C99.0913 70.6645 102.366 69.7 105.055 67.7186L104.462 66.9135L103.868 66.1084C101.579 67.795 98.7404 68.6645 95.2915 68.6645V69.6645ZM104.462 66.9135L105.055 67.7186C107.704 65.7662 109.711 63.125 111.083 59.8311L110.16 59.4465L109.237 59.0619C107.989 62.056 106.197 64.3928 103.868 66.1084L104.462 66.9135ZM110.16 59.4465L111.085 59.8266C112.45 56.5039 113.125 52.8356 113.125 48.8355H112.125H111.125C111.125 52.608 110.49 56.0138 109.235 59.0664L110.16 59.4465ZM112.125 48.8355H113.125C113.125 44.7936 112.451 41.123 111.083 37.8399L110.16 38.2245L109.237 38.6091C110.489 41.614 111.125 45.0174 111.125 48.8355H112.125ZM110.16 38.2245L111.089 37.8553C109.76 34.5089 107.749 31.8381 105.048 29.8821L104.462 30.692L103.875 31.5019C106.239 33.2139 108.027 35.5648 109.231 38.5937L110.16 38.2245ZM104.462 30.692L105.064 29.8937C102.374 27.8646 99.0965 26.8755 95.2915 26.8755V27.8755V28.8755C98.7352 28.8755 101.571 29.764 103.859 31.4903L104.462 30.692ZM95.2915 27.8755V26.8755H93.0645V27.8755V28.8755H95.2915V27.8755Z" fill="white"/>
<path d="M60 57L64 65L69 91H58L60 57Z" fill="white"/>
</svg>
